<?xml version="1.0" encoding="UTF-8"?>
<svg width="154px" height="32px" viewBox="0 0 154 32" version="1.1" xmlns="http://www.w3.org/2000/svg" xmlns:xlink="http://www.w3.org/1999/xlink">
    <!-- Generator: Sketch 44.1 (41455) - http://www.bohemiancoding.com/sketch -->
    <title>Group Copy</title>
    <desc>Created with Sketch.</desc>
    <defs></defs>
    <g id="Page-1" stroke="none" stroke-width="1" fill="none" fill-rule="evenodd">
        <g id="Desktop" transform="translate(-435.000000, -143.000000)">
            <g id="Group-Copy" transform="translate(435.000000, 143.000000)">
                <path d="M23.3254858,0 L154,0 L135.762504,29.1799936 L135.762504,29.1799936 C134.666074,30.9342818 132.743254,32 130.674514,32 L0,32 L18.237496,2.82000636 L18.237496,2.82000636 C19.3339261,1.06571818 21.2567457,3.80021409e-16 23.3254858,0 Z" id="Rectangle" fill="#D0011B"></path>
                <path d="M38.3888448,12.538 L34.3148448,12.538 L34.3148448,14.806 L37.8288448,14.806 L37.6048448,16.402 L34.3148448,16.402 L34.3148448,20 L32.3268448,20 L32.3268448,10.928 L38.3888448,10.928 L38.3888448,12.538 Z M48.3622299,20 L48.3622299,10.928 L50.3502299,10.928 L50.3502299,20 L48.3622299,20 Z M65.8816149,10.928 L69.1436149,19.888 L69.1436149,20 L67.0296149,20 L66.3016149,17.83 L62.9416149,17.83 L62.2276149,20 L60.1416149,20 L60.1416149,19.888 L63.4036149,10.928 L65.8816149,10.928 Z M63.4736149,16.234 L65.7696149,16.234 L64.6076149,12.776 L63.4736149,16.234 Z M78.067,19.104 L78.963,17.718 C79.8310043,18.2686694 80.6803292,18.544 81.511,18.544 C82.0430027,18.544 82.4606652,18.4600008 82.764,18.292 C83.0673349,18.1239992 83.219,17.8720017 83.219,17.536 C83.219,17.3306656 83.1700005,17.160334 83.072,17.025 C82.9739995,16.889666 82.8013346,16.7590006 82.554,16.633 C82.3066654,16.5069994 81.9356691,16.346001 81.441,16.15 L81.119,16.024 C80.5216637,15.7906655 80.0410018,15.5666677 79.677,15.352 C79.3129982,15.1373323 79.0236677,14.8620017 78.809,14.526 C78.5943323,14.1899983 78.487,13.7653359 78.487,13.252 C78.487,12.6826638 78.6503317,12.2090019 78.977,11.831 C79.3036683,11.4529981 79.7236641,11.1753342 80.237,10.998 C80.7503359,10.8206658 81.2963304,10.732 81.875,10.732 C82.3976693,10.732 82.9366639,10.8183325 83.492,10.991 C84.0473361,11.1636675 84.5769975,11.4179983 85.081,11.754 L84.171,13.126 C83.7229978,12.855332 83.3263351,12.6593339 82.981,12.538 C82.6356649,12.4166661 82.2623353,12.356 81.861,12.356 C81.4129978,12.356 81.0746678,12.4306659 80.846,12.58 C80.6173322,12.7293341 80.503,12.9299987 80.503,13.182 C80.503,13.3406675 80.5496662,13.4829994 80.643,13.609 C80.7363338,13.7350006 80.9043321,13.8609994 81.147,13.987 C81.3896679,14.1130006 81.7396644,14.2599992 82.197,14.428 L82.505,14.54 C83.1023363,14.7640011 83.5853315,14.973999 83.954,15.17 C84.3226685,15.366001 84.6329987,15.6459982 84.885,16.01 C85.1370013,16.3740018 85.263,16.8453304 85.263,17.424 C85.263,18.0306697 85.1043349,18.5416646 84.787,18.957 C84.4696651,19.3723354 84.0380027,19.6826656 83.492,19.888 C82.9459973,20.0933344 82.3276701,20.196 81.637,20.196 C80.236993,20.196 79.0470049,19.8320036 78.067,19.104 Z M102.558385,14.778 L102.558385,19.314 C101.933049,19.6313349 101.347388,19.857666 100.801385,19.993 C100.255382,20.128334 99.6977212,20.196 99.1283851,20.196 C97.6070441,20.196 96.4917219,19.7736709 95.7823851,18.929 C95.0730482,18.0843291 94.7183851,16.9433405 94.7183851,15.506 C94.7183851,14.4046612 94.9190497,13.4970036 95.3203851,12.783 C95.7217204,12.0689964 96.2630483,11.5486683 96.9443851,11.222 C97.6257218,10.8953317 98.4003807,10.732 99.2683851,10.732 C99.8377212,10.732 100.383716,10.8043326 100.906385,10.949 C101.429054,11.0936674 101.909716,11.3059986 102.348385,11.586 L101.536385,13 C100.827048,12.5799979 100.103722,12.37 99.3663851,12.37 C98.4983807,12.37 97.8497205,12.633664 97.4203851,13.161 C96.9910496,13.688336 96.7763851,14.4419951 96.7763851,15.422 C96.7763851,16.4580052 96.9747164,17.2303308 97.3713851,17.739 C97.7680537,18.2476692 98.3957141,18.502 99.2543851,18.502 C99.7397208,18.502 100.178383,18.4273341 100.570385,18.278 L100.570385,16.388 L98.6383851,16.388 L98.8623851,14.778 L102.558385,14.778 Z M114.45677,19.594 C113.7801,19.1926647 113.269105,18.6350036 112.92377,17.921 C112.578435,17.2069964 112.40577,16.3786714 112.40577,15.436 C112.40577,14.3906614 112.615768,13.5156702 113.03577,12.811 C113.455772,12.1063298 114.013433,11.5836684 114.70877,11.243 C115.404107,10.9023316 116.176433,10.732 117.02577,10.732 C117.996442,10.732 118.8201,10.9326647 119.49677,11.334 C120.17344,11.7353353 120.682102,12.2929964 121.02277,13.007 C121.363438,13.7210036 121.53377,14.5493286 121.53377,15.492 C121.53377,16.5373386 121.326106,17.4123298 120.91077,18.117 C120.495435,18.8216702 119.940107,19.3443316 119.24477,19.685 C118.549433,20.0256684 117.777108,20.196 116.92777,20.196 C115.957099,20.196 115.13344,19.9953353 114.45677,19.594 Z M118.33477,18.201 C118.722105,17.9536654 119.011436,17.5990023 119.20277,17.137 C119.394104,16.6749977 119.48977,16.1313365 119.48977,15.506 C119.48977,14.5166617 119.279772,13.7443361 118.85977,13.189 C118.439768,12.6336639 117.828441,12.356 117.02577,12.356 C116.185766,12.356 115.546439,12.6289973 115.10777,13.175 C114.669101,13.7210027 114.44977,14.4699952 114.44977,15.422 C114.44977,16.4113383 114.659768,17.1836639 115.07977,17.739 C115.499772,18.2943361 116.115766,18.572 116.92777,18.572 C117.47844,18.572 117.947435,18.4483346 118.33477,18.201 Z" id="FIASGO" fill="#FFFFFF"></path>
            </g>
        </g>
    </g>
</svg>