<svg version="1.1"  xmlns="http://www.w3.org/2000/svg" xmlns:xlink="http://www.w3.org/1999/xlink" x="0px" y="0px" viewBox="0 0 100 100" style="transform-origin: 50px 50px 0px;" xml:space="preserve"><g style="transform-origin: 50px 50px 0px;"><g fill="rgb(0, 0, 0)" style="fill: rgb(0, 0, 0); transform-origin: 50px 50px 0px; transform: scale(0.6);"><g style="transform-origin: 50px 50px 0px;"><g fill="rgb(0, 0, 0)" style="fill: rgb(0, 0, 0);"><style type="text/css" class="ld ld-fade" style="transform-origin: 50px 50px 0px; animation-duration: 1s; animation-delay: -1s; animation-direction: normal;">.st0{fill:#F4E6C8;} .st1{fill:#333333;} .st2{fill:#E0E0E0;} .st3{fill:#E15C64;} .st4{fill:#C33837;} .st5{fill:#D65A62;} .st6{fill:none;} .st7{fill:#F7B26A;} .st8{fill:#F47E5F;} .st9{opacity:0.2;fill:#353035;} .st10{fill:#666766;} .st11{fill:#A0C8D7;} .st12{fill:#77A4BD;} .st13{fill:#ACBD81;} .st14{fill:#FFFFFF;} .st15{fill:#849B87;} .st16{fill:none;stroke:#E0E0E0;stroke-width:4;stroke-miterlimit:10;} .st17{fill:none;stroke:#333333;stroke-width:4;stroke-miterlimit:10;} .st18{fill:#FFFFFF;stroke:#333333;stroke-width:4;stroke-miterlimit:10;} .st19{fill:none;stroke:#000000;stroke-width:4;stroke-miterlimit:10;} .st20{fill:#FFFFFF;stroke:#000000;stroke-width:4;stroke-miterlimit:10;} .st21{fill:#010101;} .st22{fill:#A5A6A6;} .st23{fill:#666666;} .st24{fill:#F3E4C7;} .st25{fill:none;stroke:#FFFFFF;stroke-linecap:round;stroke-miterlimit:10;} .st26{fill:#353035;} .st27{fill:#B93A38;} .st28{fill:#EA7C60;} .st29{fill:#E0E0E0;stroke:#F7B26A;stroke-width:8;stroke-miterlimit:10;} .st30{fill:none;stroke:#F7B26A;stroke-width:10;stroke-linecap:round;stroke-miterlimit:10;} .st31{fill:none;stroke:#010101;stroke-width:8;stroke-miterlimit:10;} .st32{fill:#F0AF6B;stroke:#010101;stroke-width:8;stroke-miterlimit:10;} .st33{fill:#829985;} .st34{fill:#A8B980;} .st35{fill:#F0AF6B;} .st36{fill:#4A3827;} .st37{fill:#332518;} .st38{fill:#E6E6E6;}</style><g class="ld ld-fade" style="transform-origin: 50px 50px 0px; animation-duration: 1s; animation-delay: -0.928571s; animation-direction: normal;"><path class="st4" d="M42.7,20.6L11.5,69.7c-1.8,2.7-2,6.1-0.5,9c1.5,2.9,4.5,4.6,7.7,4.6H50V16.7C47.1,16.7,44.4,18.1,42.7,20.6z" fill="rgb(195, 56, 55)" style="fill: rgb(195, 56, 55);"></path></g><g class="ld ld-fade" style="transform-origin: 50px 50px 0px; animation-duration: 1s; animation-delay: -0.857143s; animation-direction: normal;"><path class="st3" d="M89,78.7c1.5-2.9,1.4-6.3-0.4-9L57.2,20.6c-1.6-2.4-4.3-3.9-7.2-3.9c0,0,0,0,0,0v66.6h31.3 C84.5,83.3,87.4,81.5,89,78.7z" fill="rgb(225, 92, 100)" style="fill: rgb(225, 92, 100);"></path></g><g style="transform-origin: 50px 50px 0px;"><g fill="rgb(0, 0, 0)" style="fill: rgb(0, 0, 0);"><g class="ld ld-fade" style="transform-origin: 50px 50px 0px; animation-duration: 1s; animation-delay: -0.785714s; animation-direction: normal;"><path class="st0" d="M49.1,36.3h1.8c2.4,0,4.3,1.9,4.3,4.3v3.7l-1.6,16.1c-0.2,1.8-1.8,3.2-3.6,3.2h0c-1.9,0-3.4-1.4-3.6-3.2 l-1.6-16.1v-3.7C44.8,38.2,46.7,36.3,49.1,36.3z M49.5,66.2h1.1c2.4,0,4.3,1.9,4.3,4.3v0c0,2.4-1.9,4.3-4.3,4.3h-1.1 c-2.4,0-4.3-1.9-4.3-4.3v0C45.1,68.1,47.1,66.2,49.5,66.2z" fill="rgb(244, 230, 200)" style="fill: rgb(244, 230, 200);"></path></g></g></g><metadata xmlns:d="https://loading.io/stock/" class="ld ld-fade" style="transform-origin: 50px 50px 0px; animation-duration: 1s; animation-delay: -0.714286s; animation-direction: normal;">
<d:name class="ld ld-fade" style="transform-origin: 50px 50px 0px; animation-duration: 1s; animation-delay: -0.642857s; animation-direction: normal;">warn</d:name>
<d:tags class="ld ld-fade" style="transform-origin: 50px 50px 0px; animation-duration: 1s; animation-delay: -0.571429s; animation-direction: normal;">danger,exclamation,note,hint,caution,warn,web application</d:tags>
<d:license class="ld ld-fade" style="transform-origin: 50px 50px 0px; animation-duration: 1s; animation-delay: -0.5s; animation-direction: normal;">cc-by</d:license>
<d:slug class="ld ld-fade" style="transform-origin: 50px 50px 0px; animation-duration: 1s; animation-delay: -0.428571s; animation-direction: normal;">cn8aoo</d:slug>
</metadata></g></g></g></g><style type="text/css" class="ld ld-fade" style="transform-origin: 50px 50px 0px; animation-duration: 1s; animation-delay: -0.357143s; animation-direction: normal;">path,ellipse,circle,rect,polygon,polyline,line { stroke-width: 0; }@keyframes ld-fade {
  0% {
    opacity: 1;
  }
  100% {
    opacity: 0;
  }
}
@-webkit-keyframes ld-fade {
  0% {
    opacity: 1;
  }
  100% {
    opacity: 0;
  }
}
.ld.ld-fade {
  -webkit-animation: ld-fade 1s infinite linear;
  animation: ld-fade 1s infinite linear;
}
</style></svg>