<?xml version="1.0" standalone="no"?>
<!DOCTYPE svg PUBLIC "-//W3C//DTD SVG 20010904//EN"
 "http://www.w3.org/TR/2001/REC-SVG-20010904/DTD/svg10.dtd">
<svg version="1.0" xmlns="http://www.w3.org/2000/svg"
 width="270.000000pt" height="270.000000pt" viewBox="0 0 270.000000 270.000000"
 preserveAspectRatio="xMidYMid meet">
<metadata>
Created by potrace 1.11, written by Peter Selinger 2001-2013
</metadata>
<g transform="translate(0.000000,270.000000) scale(0.100000,-0.100000)"
fill="#000000" stroke="none">
<path d="M105 2686 c-37 -17 -80 -62 -94 -99 -8 -19 -11 -408 -11 -1238 0
-1005 2 -1215 14 -1242 16 -39 61 -82 99 -96 40 -15 2434 -15 2474 0 38 14 83
57 99 96 21 48 21 2438 0 2486 -16 39 -61 82 -99 96 -19 8 -407 11 -1240 11
-990 -1 -1217 -3 -1242 -14z m2110 -596 c69 -17 255 -96 255 -107 0 -7 -31
-64 -80 -147 l-49 -83 -68 33 c-100 49 -195 67 -317 62 -81 -4 -113 -10 -158
-30 -157 -72 -228 -216 -228 -463 0 -253 64 -395 210 -464 51 -24 65 -26 190
-26 87 0 148 5 173 13 l37 14 0 154 0 154 -156 0 -156 0 5 28 c3 15 11 73 18
130 l12 102 304 0 303 0 0 -369 0 -368 -71 -32 c-315 -141 -667 -148 -898 -18
-117 66 -220 206 -269 368 -62 202 -50 496 27 680 114 271 355 406 706 394 87
-2 156 -11 210 -25z m-1035 -130 l0 -130 -330 0 -330 0 0 -185 0 -185 286 0
286 0 -6 -27 c-3 -16 -10 -64 -16 -108 -6 -44 -13 -90 -16 -102 l-4 -23 -265
0 -265 0 0 -295 0 -295 -165 0 -165 0 0 740 0 740 495 0 495 0 0 -130z"/>
</g>
</svg>
